<svg xmlns="http://www.w3.org/2000/svg" width="189" height="189" viewBox="0 0 189 189">
  <g id="Group_1" data-name="Group 1" transform="translate(-822 510)">
    <g id="Group_8" data-name="Group 8" transform="translate(337 -1167)">
      <circle id="Ellipse_1" data-name="Ellipse 1" cx="94.5" cy="94.5" r="94.5" transform="translate(485 657)" fill="#7367f0"/>
      <g id="Group_539" data-name="Group 539" transform="translate(27.569 -647.401) rotate(41)">
        <path id="Union_8" data-name="Union 8" d="M22.36,94.9c-5.092-.26-10.9-15.422-15.268-31.062C4.848,55.8,2.99,47.642,1.8,41.3c3.3,3.129,9.977,6.078,23.4,3.856,15.311-2.539,28.394-8.238,40.315-11.347-11.922,3.107-25,8.8-40.312,11.341C11.772,47.383,5.1,44.429,1.8,41.3,1.216,38.2.791,35.529.562,33.53-1.2,18.209,1.345,9.191,6.03,4.409A15.529,15.529,0,0,1,7.678,2.97,14.772,14.772,0,0,1,13.176.4c8.074-1.958,17.107,6.776,25.4,6.776S54.721-1.093,62.534.122C68.684,1.077,73.872,5.063,76.048,14c.179.719.338,1.474.472,2.264h.006a58.559,58.559,0,0,1,.258,15.54h-.007c-.058.572-.11,1.138-.174,1.728-.748,6.44-3.5,19.745-7.129,32.324-4.286,14.9-9.812,28.8-14.688,29.045-3.7.194-4.2-10.811-6.187-20.447-4.069-19.7-16.273-18.9-20.167.607C26.555,84.46,26,94.9,22.463,94.9ZM1.789,41.3H1.8a.009.009,0,0,0,0,.007S1.793,41.3,1.789,41.3Z" transform="translate(1296.291 646.111)" fill="#fff"/>
      </g>
    </g>
  </g>
</svg>
