<svg xmlns="http://www.w3.org/2000/svg" width="708.388" height="189" viewBox="0 0 708.388 189">
  <g id="Group_1" data-name="Group 1" transform="translate(-822 510)">
    <g id="Group_8" data-name="Group 8" transform="translate(337 -1167)">
      <circle id="Ellipse_1" data-name="Ellipse 1" cx="94.5" cy="94.5" r="94.5" transform="translate(485 657)" fill="#fff"/>
      <path id="Path_867" data-name="Path 867" d="M7.427-64.644H22q14.094,0,20.944,3.494A27.286,27.286,0,0,1,54.232-49.79a36.778,36.778,0,0,1,4.435,18.369,36.966,36.966,0,0,1-2.481,13.733,28.5,28.5,0,0,1-6.85,10.393,24.191,24.191,0,0,1-9.462,5.713Q34.781,0,22.224,0H7.427ZM19.644-52.778V-12h5.713q8.438,0,12.239-1.936a14.666,14.666,0,0,0,6.218-6.511A23.885,23.885,0,0,0,46.23-31.706q0-10.294-5.757-15.969-5.186-5.1-16.655-5.1Zm97.339,32.344H78.442a12.83,12.83,0,0,0,4.46,8.108,14,14,0,0,0,9.25,3.01,16,16,0,0,0,11.558-4.7l10.107,4.746a23.857,23.857,0,0,1-9.053,7.932A28.311,28.311,0,0,1,92.241,1.23q-11.25,0-18.325-7.1a24.153,24.153,0,0,1-7.075-17.776q0-10.942,7.053-18.171a23.689,23.689,0,0,1,17.688-7.229q11.294,0,18.369,7.229t7.075,19.094Zm-12-9.448a12.037,12.037,0,0,0-4.688-6.5,13.593,13.593,0,0,0-8.122-2.5,14.361,14.361,0,0,0-8.8,2.813,15.673,15.673,0,0,0-4.4,6.2Zm21.709-17.93h12v4.9a28.782,28.782,0,0,1,7.394-4.785,17.871,17.871,0,0,1,6.78-1.345,16.414,16.414,0,0,1,12.068,4.966Q169.1-39.858,169.1-31.6V0H157.236V-20.938q0-8.559-.767-11.368a7.787,7.787,0,0,0-2.674-4.28,7.488,7.488,0,0,0-4.713-1.47,8.833,8.833,0,0,0-6.247,2.436,13,13,0,0,0-3.617,6.738,54.352,54.352,0,0,0-.526,9.7V0h-12Zm55.459-17.622h12v17.622h7.119v10.327H194.15V0h-12V-37.485H176V-47.812h6.152Zm60.82,17.622h12V0h-12V-5.054a23.519,23.519,0,0,1-7.045,4.812,19.717,19.717,0,0,1-7.66,1.472,21.278,21.278,0,0,1-16.021-7.185,25.065,25.065,0,0,1-6.76-17.864q0-11.074,6.54-18.149a20.837,20.837,0,0,1,15.89-7.075,20.2,20.2,0,0,1,8.076,1.626,22.039,22.039,0,0,1,6.979,4.878Zm-12.612,9.844a12.121,12.121,0,0,0-9.242,3.933,14.174,14.174,0,0,0-3.679,10.085,14.323,14.323,0,0,0,3.745,10.2,12.133,12.133,0,0,0,9.219,4,12.36,12.36,0,0,0,9.373-3.933A14.377,14.377,0,0,0,243.5-23.994,13.964,13.964,0,0,0,239.778-34.1,12.514,12.514,0,0,0,230.362-37.969Zm35.419-28.3h12V0h-12Z" transform="translate(696 784)" fill="#fff"/>
      <path id="Path_868" data-name="Path 868" d="M66.8-53.283l-8.606,8.2Q49.41-54.36,38.433-54.36a21.233,21.233,0,0,0-15.609,6.334A21.2,21.2,0,0,0,16.479-32.41a23.083,23.083,0,0,0,2.81,11.481,20.142,20.142,0,0,0,7.947,7.874A23.072,23.072,0,0,0,38.653-10.2a23.525,23.525,0,0,0,9.791-2,35.1,35.1,0,0,0,9.748-7.28l8.342,8.7Q59.37-3.781,53-1.078a36.943,36.943,0,0,1-14.546,2.7q-15.073,0-24.675-9.558t-9.6-24.5A33.532,33.532,0,0,1,8.547-49.614,32.513,32.513,0,0,1,21.072-61.7a35.32,35.32,0,0,1,17.556-4.57,36.708,36.708,0,0,1,15.4,3.378A36.833,36.833,0,0,1,66.8-53.283Zm44.736,5.471h12V0h-12V-5.054a23.519,23.519,0,0,1-7.045,4.812,19.717,19.717,0,0,1-7.66,1.472A21.278,21.278,0,0,1,80.808-5.955a25.065,25.065,0,0,1-6.76-17.864q0-11.074,6.54-18.149a20.837,20.837,0,0,1,15.89-7.075,20.2,20.2,0,0,1,8.076,1.626,22.039,22.039,0,0,1,6.979,4.878ZM98.922-37.969a12.121,12.121,0,0,0-9.242,3.933A14.174,14.174,0,0,0,86-23.95a14.323,14.323,0,0,0,3.745,10.2,12.133,12.133,0,0,0,9.219,4,12.36,12.36,0,0,0,9.373-3.933,14.377,14.377,0,0,0,3.723-10.305A13.964,13.964,0,0,0,108.338-34.1,12.514,12.514,0,0,0,98.922-37.969Zm33.925-9.844H143.13v6.021a12.847,12.847,0,0,1,4.438-5.405,10.708,10.708,0,0,1,6.064-1.846,11.221,11.221,0,0,1,4.878,1.23l-3.735,10.327A8.25,8.25,0,0,0,151.3-38.54q-2.769,0-4.68,3.428t-1.912,13.447l.044,2.329V0H132.847Zm79.5,27.378H173.8a12.83,12.83,0,0,0,4.46,8.108,14,14,0,0,0,9.25,3.01,16,16,0,0,0,11.558-4.7L209.18-9.272a23.857,23.857,0,0,1-9.053,7.932A28.311,28.311,0,0,1,187.6,1.23q-11.25,0-18.325-7.1A24.153,24.153,0,0,1,162.2-23.643q0-10.942,7.053-18.171a23.689,23.689,0,0,1,17.688-7.229q11.294,0,18.369,7.229t7.075,19.094Zm-12-9.448a12.037,12.037,0,0,0-4.688-6.5,13.593,13.593,0,0,0-8.122-2.5,14.361,14.361,0,0,0-8.8,2.813,15.673,15.673,0,0,0-4.4,6.2Z" transform="translate(981 784)" fill="#fff"/>
      <g id="Group_539" data-name="Group 539" transform="translate(27.569 -647.401) rotate(41)">
        <path id="Union_8" data-name="Union 8" d="M22.36,94.9c-5.092-.26-10.9-15.422-15.268-31.062C4.848,55.8,2.99,47.642,1.8,41.3c3.3,3.129,9.977,6.078,23.4,3.856,15.311-2.539,28.394-8.238,40.315-11.347-11.922,3.107-25,8.8-40.312,11.341C11.772,47.383,5.1,44.429,1.8,41.3,1.216,38.2.791,35.529.562,33.53-1.2,18.209,1.345,9.191,6.03,4.409A15.529,15.529,0,0,1,7.678,2.97,14.772,14.772,0,0,1,13.176.4c8.074-1.958,17.107,6.776,25.4,6.776S54.721-1.093,62.534.122C68.684,1.077,73.872,5.063,76.048,14c.179.719.338,1.474.472,2.264h.006a58.559,58.559,0,0,1,.258,15.54h-.007c-.058.572-.11,1.138-.174,1.728-.748,6.44-3.5,19.745-7.129,32.324-4.286,14.9-9.812,28.8-14.688,29.045-3.7.194-4.2-10.811-6.187-20.447-4.069-19.7-16.273-18.9-20.167.607C26.555,84.46,26,94.9,22.463,94.9ZM1.789,41.3H1.8a.009.009,0,0,0,0,.007S1.793,41.3,1.789,41.3Z" transform="translate(1296.291 646.111)" fill="#7367f0"/>
      </g>
    </g>
  </g>
</svg>
